<svg width="154" height="49" viewBox="0 0 154 49" fill="none" xmlns="http://www.w3.org/2000/svg">
<path opacity="0.7" d="M44.5268 19.2566L44.4951 5.86167L49.3591 5.85017C50.8918 5.84654 52.1844 6.10948 53.237 6.63899C54.3022 7.15581 55.1084 7.9139 55.6554 8.91328C56.2024 9.89999 56.4776 11.1027 56.4809 12.5213C56.4842 13.9273 56.2148 15.1313 55.6725 16.1333C55.1302 17.1352 54.3276 17.9034 53.2649 18.438C52.2148 18.9724 50.9235 19.2415 49.3908 19.2451L44.5268 19.2566ZM46.973 17.2178L49.234 17.2125C50.8553 17.2087 52.0577 16.8195 52.8412 16.045C53.6247 15.2704 54.0146 14.0978 54.0109 12.5272C54.0072 10.9439 53.6117 9.77312 52.8246 9.01498C52.0375 8.24417 50.8332 7.86068 49.2119 7.86452L46.9509 7.86987L46.973 17.2178ZM62.9149 19.4031C62.0789 19.4051 61.3437 19.2105 60.7095 18.8194C60.0752 18.4155 59.5798 17.8404 59.2234 17.0939C58.867 16.3474 58.6875 15.4548 58.6851 14.4161C58.6826 13.3775 58.8578 12.4904 59.2108 11.7549C59.5637 11.0067 60.0563 10.4355 60.6887 10.0414C61.3211 9.63455 62.0553 9.43014 62.8913 9.42817C63.7019 9.42625 64.4118 9.62724 65.0207 10.0311C65.6423 10.4223 66.0552 10.9534 66.2595 11.6242L66.0505 11.6247L66.2547 9.61021L68.5347 9.60482C68.4976 9.99757 68.4606 10.3967 68.4235 10.8021C68.3992 11.2075 68.3874 11.6065 68.3884 11.9992L68.4054 19.2002L66.0494 19.2057L66.0257 17.2298L66.2537 17.2292C66.0526 17.8884 65.6422 18.415 65.0225 18.8092C64.4027 19.2033 63.7002 19.4013 62.9149 19.4031ZM63.5756 17.5776C64.3229 17.5758 64.9239 17.3147 65.3787 16.7943C65.8334 16.2612 66.0596 15.4627 66.057 14.3987C66.0545 13.3347 65.8247 12.5436 65.3674 12.0253C64.9102 11.5071 64.3079 11.2488 63.5606 11.2506C62.8133 11.2524 62.2122 11.5134 61.7574 12.0339C61.3027 12.5543 61.0765 13.3465 61.0791 14.4105C61.0816 15.4745 61.3051 16.2719 61.7497 16.8029C62.2069 17.3211 62.8156 17.5794 63.5756 17.5776ZM74.8121 19.375C73.9887 19.3769 73.2285 19.2837 72.5314 19.0954C71.8469 18.8943 71.2699 18.617 70.8004 18.2635L71.4616 16.6659C71.9438 16.9941 72.4764 17.2462 73.0594 17.4221C73.6425 17.5981 74.2317 17.6854 74.8271 17.684C75.4604 17.6825 75.9288 17.5737 76.2323 17.3576C76.5485 17.1415 76.7061 16.8498 76.7052 16.4825C76.7045 16.1912 76.6027 15.9634 76.3996 15.7992C76.2092 15.6223 75.8985 15.4901 75.4677 15.4024L73.5668 15.0459C72.7557 14.8705 72.1344 14.568 71.7027 14.1383C71.2837 13.7087 71.0733 13.1455 71.0717 12.4488C71.0703 11.8535 71.2274 11.3275 71.5429 10.8707C71.8712 10.4139 72.3327 10.0582 72.9274 9.80343C73.5348 9.53599 74.2438 9.40131 75.0545 9.39939C75.7638 9.39772 76.429 9.49114 77.0501 9.67967C77.6839 9.86818 78.2166 10.1519 78.6482 10.5309L77.9678 12.0715C77.5744 11.7558 77.1241 11.5098 76.617 11.3337C76.11 11.1576 75.6158 11.0701 75.1344 11.0712C74.4758 11.0728 73.9947 11.1942 73.6913 11.4356C73.3878 11.6643 73.2365 11.9624 73.2374 12.3297C73.2381 12.6084 73.3273 12.8425 73.5051 13.0321C73.6955 13.209 73.9871 13.3413 74.38 13.429L76.2808 13.7855C77.1299 13.9482 77.7703 14.238 78.2019 14.655C78.6462 15.0592 78.8692 15.6161 78.8709 16.3254C78.8724 16.9587 78.7026 17.5038 78.3617 17.9606C78.0208 18.4174 77.5466 18.7669 76.9392 19.009C76.3318 19.2511 75.6227 19.3731 74.8121 19.375ZM81.3102 19.1696L81.2771 5.18566L83.6521 5.18004L83.667 11.488L83.401 11.4887C83.6907 10.804 84.1391 10.2836 84.7463 9.92747C85.3534 9.5587 86.0497 9.37339 86.835 9.37153C87.975 9.36883 88.8244 9.68982 89.3833 10.3345C89.9421 10.9665 90.2231 11.9349 90.2262 13.2395L90.2401 19.1485L87.8651 19.1541L87.8514 13.3591C87.8497 12.6118 87.7027 12.0738 87.4106 11.7452C87.1311 11.4038 86.6811 11.2339 86.0604 11.2354C85.3384 11.2371 84.7563 11.4665 84.314 11.9235C83.8844 12.3678 83.6705 12.9637 83.6722 13.711L83.6851 19.164L81.3102 19.1696ZM98.6498 19.3186C97.8391 19.3205 97.1293 19.1259 96.5204 18.7346C95.9114 18.3307 95.5048 17.787 95.3005 17.1035L95.5095 17.103L95.5144 19.136L93.1584 19.1416L93.1253 5.15764L95.5003 5.15202L95.5153 11.498L95.2873 11.4985C95.5011 10.8394 95.9115 10.3191 96.5186 9.93762C97.1257 9.54352 97.8282 9.34552 98.6262 9.34364C99.4749 9.34163 100.216 9.54254 100.851 9.94638C101.485 10.3502 101.98 10.9254 102.337 11.6719C102.693 12.4057 102.873 13.2919 102.875 14.3306C102.877 15.3693 102.702 16.2627 102.349 17.0109C101.996 17.7464 101.497 18.3175 100.852 18.7244C100.22 19.1186 99.4858 19.3166 98.6498 19.3186ZM97.9805 17.4962C98.7278 17.4944 99.3289 17.2333 99.7836 16.7129C100.251 16.1925 100.484 15.4003 100.481 14.3363C100.478 13.2723 100.242 12.4812 99.7724 11.9629C99.3151 11.432 98.7128 11.1674 97.9655 11.1692C97.2182 11.171 96.6171 11.4321 96.1624 11.9525C95.7076 12.4729 95.4815 13.2651 95.484 14.3291C95.4865 15.3931 95.7164 16.1905 96.1736 16.7215C96.6309 17.2397 97.2331 17.498 97.9805 17.4962ZM109.673 19.2925C108.685 19.2949 107.83 19.0942 107.107 18.6906C106.384 18.287 105.819 17.712 105.411 16.9656C105.017 16.2192 104.819 15.333 104.816 14.307C104.814 13.281 105.008 12.4002 105.399 11.6646C105.802 10.9163 106.365 10.3387 107.086 9.93163C107.807 9.52459 108.661 9.3199 109.649 9.31756C110.637 9.31522 111.493 9.51587 112.216 9.91949C112.951 10.3231 113.516 10.8981 113.911 11.6445C114.318 12.3782 114.523 13.258 114.525 14.284C114.528 15.31 114.327 16.1972 113.923 16.9455C113.533 17.6937 112.97 18.2714 112.237 18.6785C111.516 19.0855 110.661 19.2902 109.673 19.2925ZM109.669 17.4685C110.416 17.4668 111.011 17.2057 111.453 16.6853C111.895 16.1523 112.115 15.3537 112.112 14.2897C112.11 13.2258 111.886 12.4346 111.442 11.9163C110.997 11.398 110.401 11.1398 109.654 11.1416C108.906 11.1433 108.312 11.4044 107.87 11.9248C107.427 12.4452 107.208 13.2373 107.21 14.3013C107.213 15.3653 107.436 16.1628 107.881 16.6938C108.325 17.212 108.921 17.4703 109.669 17.4685ZM120.69 19.2665C119.854 19.2685 119.119 19.0739 118.485 18.6827C117.85 18.2789 117.355 17.7037 116.999 16.9572C116.642 16.2107 116.463 15.3181 116.46 14.2795C116.458 13.2408 116.633 12.3537 116.986 11.6182C117.339 10.87 117.832 10.2989 118.464 9.90471C119.096 9.49788 119.831 9.29348 120.667 9.2915C121.477 9.28958 122.187 9.49057 122.796 9.89447C123.418 10.2857 123.83 10.8167 124.035 11.4875L123.826 11.488L124.03 9.47355L126.31 9.46815C126.273 9.86091 126.236 10.26 126.199 10.6654C126.174 11.0708 126.163 11.4698 126.164 11.8625L126.181 19.0635L123.825 19.0691L123.801 17.0931L124.029 17.0926C123.828 17.7517 123.417 18.2784 122.798 18.6725C122.178 19.0666 121.475 19.2646 120.69 19.2665ZM121.351 17.4409C122.098 17.4391 122.699 17.178 123.154 16.6576C123.609 16.1246 123.835 15.326 123.832 14.262C123.83 13.198 123.6 12.4069 123.143 11.8887C122.685 11.3704 122.083 11.1122 121.336 11.1139C120.588 11.1157 119.987 11.3768 119.533 11.8972C119.078 12.4176 118.852 13.2098 118.854 14.2738C118.857 15.3378 119.08 16.1353 119.525 16.6662C119.982 17.1845 120.591 17.4427 121.351 17.4409ZM129.148 19.0565L129.131 11.9125C129.13 11.5072 129.116 11.0955 129.09 10.6776C129.076 10.2596 129.044 9.85435 128.992 9.46181L131.291 9.45637L131.563 12.0777L131.183 12.0786C131.309 11.445 131.516 10.9188 131.807 10.5002C132.11 10.0814 132.476 9.77023 132.906 9.56655C133.337 9.36286 133.805 9.26042 134.312 9.25922C134.54 9.25868 134.723 9.27092 134.863 9.29592C135.002 9.30826 135.142 9.33959 135.281 9.38993L135.267 11.48C135.026 11.3792 134.817 11.3164 134.64 11.2915C134.475 11.2665 134.266 11.2543 134.012 11.2549C133.468 11.2562 133.006 11.3713 132.626 11.6002C132.259 11.8291 131.982 12.1464 131.792 12.5522C131.616 12.9579 131.529 13.4205 131.53 13.9398L131.542 19.0508L129.148 19.0565ZM140.602 19.2194C139.766 19.2214 139.024 19.0268 138.377 18.6356C137.743 18.2318 137.248 17.6566 136.891 16.9101C136.535 16.1637 136.355 15.2711 136.353 14.2324C136.351 13.1937 136.526 12.3067 136.879 11.5712C137.232 10.823 137.724 10.2518 138.357 9.85766C139.002 9.4508 139.742 9.24638 140.578 9.2444C141.376 9.24251 142.08 9.43718 142.689 9.82841C143.31 10.2069 143.723 10.7253 143.927 11.3835L143.68 11.3841L143.665 5.03809L146.04 5.03247L146.073 19.0164L143.736 19.022L143.732 16.989L143.96 16.9884C143.758 17.6729 143.348 18.2185 142.728 18.6253C142.121 19.0194 141.412 19.2175 140.602 19.2194ZM141.262 17.3938C142.01 17.392 142.611 17.1309 143.066 16.6105C143.52 16.0775 143.747 15.2789 143.744 14.2149C143.741 13.1509 143.512 12.3598 143.054 11.8416C142.597 11.3233 141.995 11.0651 141.248 11.0668C140.5 11.0686 139.893 11.3297 139.425 11.8501C138.971 12.3705 138.744 13.1627 138.747 14.2267C138.75 15.2907 138.979 16.0882 139.437 16.6191C139.907 17.1373 140.515 17.3956 141.262 17.3938ZM44.5836 43.2566L44.5519 29.8616L50.4229 29.8477C51.8795 29.8443 53.0013 30.152 53.7881 30.7708C54.5748 31.3769 54.9695 32.2246 54.9721 33.314C54.974 34.1246 54.735 34.8092 54.255 35.3677C53.7749 35.9261 53.1108 36.3014 52.2626 36.4934L52.2619 36.2084C53.2376 36.3454 53.9921 36.6983 54.5254 37.267C55.0714 37.8231 55.3455 38.5634 55.3477 39.4881C55.3505 40.6788 54.941 41.6044 54.1193 42.265C53.2975 42.913 52.1519 43.2387 50.6826 43.2421L44.5836 43.2566ZM46.9352 41.389L50.3932 41.3808C51.2165 41.3789 51.8558 41.2254 52.3111 40.9203C52.7663 40.6025 52.9931 40.089 52.9914 39.3797C52.9897 38.6577 52.7605 38.1452 52.3038 37.8423C51.8471 37.5267 51.207 37.3699 50.3837 37.3718L46.9257 37.38L46.9352 41.389ZM46.9213 35.537L50.0183 35.5297C50.8923 35.5276 51.5379 35.3678 51.9552 35.0501C52.3851 34.7198 52.5993 34.2379 52.5978 33.6046C52.5963 32.9713 52.3798 32.4968 51.9484 32.1811C51.5296 31.8528 50.8832 31.6896 50.0092 31.6917L46.9123 31.699L46.9213 35.537ZM61.6172 43.4063C60.7812 43.4083 60.046 43.2137 59.4118 42.8225C58.7775 42.4187 58.2821 41.8435 57.9257 41.097C57.5692 40.3505 57.3898 39.4579 57.3873 38.4193C57.3849 37.3806 57.5601 36.4935 57.9131 35.758C58.2659 35.0098 58.7586 34.4387 59.391 34.0445C60.0234 33.6377 60.7576 33.4333 61.5936 33.4313C62.4042 33.4294 63.114 33.6304 63.723 34.0343C64.3446 34.4255 64.7575 34.9565 64.9618 35.6273L64.7528 35.6278L64.957 33.6133L67.237 33.608C67.1999 34.0007 67.1629 34.3998 67.1258 34.8052C67.1015 35.2106 67.0897 35.6096 67.0907 36.0023L67.1077 43.2033L64.7517 43.2089L64.728 41.2329L64.956 41.2324C64.7549 41.8915 64.3445 42.4182 63.7248 42.8123C63.105 43.2064 62.4025 43.4044 61.6172 43.4063ZM62.2778 41.5807C63.0252 41.5789 63.6262 41.3179 64.081 40.7974C64.5357 40.2644 64.7618 39.4658 64.7593 38.4018C64.7568 37.3378 64.5269 36.5467 64.0697 36.0285C63.6125 35.5102 63.0102 35.252 62.2629 35.2537C61.5155 35.2555 60.9145 35.5166 60.4597 36.037C60.0049 36.5574 59.7788 37.3496 59.7813 38.4136C59.7839 39.4776 60.0074 40.2751 60.452 40.806C60.9092 41.3243 61.5178 41.5825 62.2778 41.5807ZM74.55 47.4417C73.6633 47.4438 72.8587 47.3507 72.1363 47.1624C71.4265 46.9741 70.7925 46.6842 70.2342 46.2929L70.7432 44.5817C71.1111 44.8215 71.4916 45.0169 71.8846 45.168C72.2776 45.3191 72.6832 45.4321 73.1014 45.5071C73.5196 45.5821 73.944 45.6191 74.3746 45.6181C75.2613 45.616 75.9195 45.3928 76.3491 44.9484C76.7914 44.5167 77.0116 43.8955 77.0097 43.0849L77.0042 40.7859L77.1942 40.7854C76.9931 41.4446 76.5827 41.9712 75.963 42.3653C75.3559 42.7594 74.6534 42.9574 73.8554 42.9593C72.994 42.9614 72.2399 42.7731 71.593 42.3947C70.9588 42.0035 70.4634 41.4473 70.1071 40.7262C69.7507 40.005 69.5714 39.1568 69.569 38.1815C69.5667 37.2061 69.7421 36.3634 70.0951 35.6532C70.448 34.9304 70.9407 34.3782 71.5731 33.9967C72.2182 33.6025 72.9714 33.4044 73.8328 33.4024C74.6434 33.4004 75.3469 33.5951 75.9431 33.9864C76.552 34.3649 76.9586 34.8833 77.1628 35.5415L76.9916 35.4279L77.1772 33.5844L79.4762 33.579C79.4264 33.9718 79.3894 34.3709 79.365 34.7763C79.3406 35.1817 79.3289 35.5807 79.3298 35.9734L79.346 42.7943C79.3495 44.3017 78.9406 45.449 78.1191 46.2362C77.3103 47.0362 76.1206 47.438 74.55 47.4417ZM74.497 41.1338C75.257 41.132 75.8581 40.8772 76.3002 40.3695C76.755 39.8491 76.9813 39.1139 76.979 38.1639C76.9768 37.2139 76.7471 36.4861 76.2899 35.9805C75.8453 35.4749 75.2431 35.223 74.4831 35.2248C73.7104 35.2266 73.0967 35.4814 72.6419 35.9892C72.1871 36.4969 71.9608 37.2258 71.963 38.1758C71.9653 39.1258 72.195 39.8599 72.6522 40.3782C73.1094 40.8838 73.7244 41.1356 74.497 41.1338ZM82.1334 47.4808L81.578 45.6011C82.173 45.473 82.673 45.3261 83.0779 45.1605C83.4829 44.9949 83.818 44.7788 84.0834 44.5121C84.3488 44.2455 84.5696 43.903 84.746 43.4846L85.2183 42.3624L85.1635 43.2936L80.9605 33.5755L83.4875 33.5695L86.5072 41.0484L85.9562 41.0497L88.9595 33.5566L91.3535 33.5509L87.0075 43.6882C86.7177 44.3729 86.4024 44.9373 86.0615 45.3815C85.7205 45.8383 85.3541 46.2001 84.962 46.4671C84.57 46.7467 84.1399 46.963 83.6716 47.1161C83.2032 47.2692 82.6905 47.3908 82.1334 47.4808Z" fill="white"/>
<path d="M39.004 20.8623C38.941 16.4856 36.7386 13.285 32.7436 11.78C30.5722 10.9594 29.6238 9.86009 28.9426 7.69009C27.3805 2.71447 22.2193 -0.276931 17.1679 0.417462C12.4408 1.06054 8.73567 4.57842 7.77183 9.39151C7.5408 10.559 7.16563 11.3392 5.9496 11.9381C2.12899 13.8197 0.0109792 16.8894 0.0740947 21.3104C0.139929 25.9904 0.233137 30.6747 0.088327 35.3489C-0.0762508 40.5708 4.00091 44.7443 8.53787 45.6204C12.1898 46.3237 15.8934 45.7272 18.2718 45.8754C22.695 45.8649 25.8125 45.9481 28.9275 45.8291C34.2075 45.627 38.9467 41.1715 39.0153 36.3268C39.0915 31.1683 39.0793 26.0121 39.004 20.8623ZM11.0095 9.4976C11.5239 7.81667 12.5721 6.34914 13.9953 5.31731C15.4185 4.28547 17.1392 3.74553 18.8967 3.77925C22.3344 3.84484 25.405 6.33778 26.3292 9.69727C26.565 10.5561 26.2599 10.679 25.5606 10.6785C23.2436 10.6714 20.9267 10.6895 18.6224 10.6949C16.4066 10.7002 14.1991 10.678 11.9729 10.7254C11.0188 10.7403 10.7001 10.5051 11.0095 9.4976ZM35.4134 35.4128C35.3192 40.1164 31.5374 42.3854 28.2475 42.4353C25.324 42.4781 22.3941 42.4492 19.4664 42.4561L19.4663 42.4329C16.5863 42.4397 13.7077 42.4466 10.8305 42.4534C7.24977 42.4618 3.63073 39.629 3.77407 35.2222C3.93109 30.3647 3.78057 25.4995 3.82383 20.6359C3.85767 17.133 6.33652 14.3468 9.83667 14.1174C16.2894 13.6956 22.7532 13.5118 29.2146 14.0505C32.737 14.3434 35.2228 17.1368 35.3175 20.6878C35.4429 25.5994 35.5219 30.5006 35.4134 35.4128Z" fill="white"/>
<path d="M30.1656 27.9939C29.9852 31.0084 29.0249 33.73 26.8648 35.9109C25.8056 36.9958 24.5381 37.8553 23.1383 38.4377C21.7385 39.0202 20.2353 39.3136 18.7193 39.3003C12.8406 39.3142 7.54277 33.7829 7.75204 27.8636C7.78545 26.8525 8.19042 26.2028 9.18224 26.0952C10.3341 25.9745 10.8162 26.7759 10.8944 27.7488C11.0786 29.941 11.7699 31.8919 13.3428 33.4743C15.6273 35.7668 18.3355 36.4408 21.3914 35.4246C24.4979 34.3894 26.2492 32.1442 26.8293 28.9538C26.9042 28.5324 26.9327 28.1111 26.9991 27.6896C27.1589 26.6993 27.6268 25.9336 28.7434 26.0573C29.8306 26.1769 30.2264 26.989 30.1656 27.9939Z" fill="white"/>
<path d="M33.2475 28.1466C33.1227 28.8146 32.9305 29.5017 32.0245 29.3838C31.1965 29.2763 31.3908 28.6144 31.3895 28.0647C31.385 26.169 30.7042 25.069 29.2751 24.6553C27.8461 24.2417 26.6491 24.8954 25.6991 26.6585C25.3489 27.3123 24.8947 27.6419 24.2389 27.317C23.6252 27.013 23.706 26.4399 23.9132 25.8433C24.2417 24.8806 24.8659 24.0463 25.6966 23.4592C26.5273 22.8721 27.5222 22.5623 28.5393 22.5739C31.4755 22.5628 33.7883 25.2955 33.2475 28.1466Z" fill="white"/>
</svg>
