<svg width="17" height="17" viewBox="0 0 17 17" fill="none" xmlns="http://www.w3.org/2000/svg">
<path d="M15.7406 9.43167L8.76152 9.44818L13.4204 14.0851C13.5985 14.2623 13.8909 14.276 14.0731 14.1036C15.2088 13.0285 15.9884 11.5811 16.2142 9.95555C16.253 9.67722 16.0215 9.43101 15.7406 9.43167ZM15.2705 7.5269C15.0199 4.01396 12.2056 1.21297 8.69149 0.978926C8.42321 0.961031 8.19786 1.18774 8.1985 1.45656L8.21407 8.03771L14.7955 8.02214C15.0643 8.0215 15.2897 7.79509 15.2705 7.5269ZM6.80564 9.45281L6.78914 2.47372C6.78847 2.19284 6.54116 1.96254 6.26331 2.00261C2.7595 2.50619 0.0876282 5.57458 0.221014 9.24397C0.358164 13.0125 3.61047 16.0954 7.38093 16.0391C8.86324 16.0171 10.2318 15.5362 11.3561 14.7347C11.5881 14.5694 11.6025 14.2273 11.4006 14.0264L6.80564 9.45281Z" fill="white"/>
</svg>
