<svg width="15" height="17" viewBox="0 0 15 17" fill="none" xmlns="http://www.w3.org/2000/svg">
<path d="M7.88695 8.50751C10.0963 8.50228 11.8827 6.70743 11.8775 4.49806C11.8722 2.28869 10.0774 0.502305 7.86802 0.507532C5.65865 0.512758 3.87227 2.30761 3.8775 4.51698C3.88272 6.72635 5.67758 8.51274 7.88695 8.50751ZM10.8831 9.51917L9.4035 15.5039L8.39345 11.2563L9.38931 9.50396L6.38932 9.51105L7.39345 11.2587L6.40351 15.511L4.89561 9.53334C2.66775 9.64486 0.893936 11.4709 0.899266 13.7241L0.902341 15.024C0.9043 15.8522 1.57776 16.5225 2.40589 16.5205L13.4059 16.4945C14.234 16.4925 14.9043 15.8191 14.9023 14.9909L14.8992 13.6909C14.8939 11.4378 13.1115 9.62015 10.8831 9.51917V9.51917Z" fill="white"/>
</svg>
