<svg width="13" height="17" viewBox="0 0 13 17" fill="none" xmlns="http://www.w3.org/2000/svg">
<path d="M3.10904 11.8477C2.83684 11.5767 2.97858 11.653 2.32317 11.4792C2.02579 11.4002 1.76418 11.2477 1.5275 11.0648L0.117911 14.5444C-0.0184804 14.8813 0.238634 15.2463 0.601725 15.2317L2.24813 15.165L3.38346 16.3586C3.63408 16.6217 4.07264 16.5385 4.20903 16.2016L5.82615 12.2097C5.48785 12.3992 5.11218 12.5107 4.72343 12.5117C4.11405 12.5131 3.54099 12.2773 3.10904 11.8477V11.8477ZM12.0429 14.5162L10.6168 11.0433C10.381 11.2276 10.1201 11.3811 9.82315 11.4615C9.16513 11.6393 9.30932 11.5621 9.03902 11.8336C8.60911 12.2653 8.03686 12.5038 7.42748 12.5053C7.03873 12.5062 6.66253 12.3961 6.32334 12.2085L7.95933 16.1928C8.09731 16.529 8.53657 16.6101 8.78563 16.3458L9.91561 15.1469L11.5623 15.2058C11.9255 15.2187 12.1809 14.8521 12.0429 14.5162V14.5162ZM8.2911 11.1282C8.76745 10.6411 8.82224 10.6829 9.5018 10.496C9.93558 10.3765 10.2741 10.0304 10.3893 9.58824C10.621 8.70019 10.5606 8.80752 11.1969 8.15664C11.5139 7.83245 11.6369 7.3606 11.5196 6.919C11.2841 6.03268 11.284 6.15643 11.5157 5.26807C11.6309 4.82592 11.5057 4.35465 11.1871 4.03197C10.5478 3.3841 10.6087 3.49083 10.3728 2.6042C10.2555 2.1626 9.91533 1.81809 9.48099 1.70068C8.60918 1.46493 8.71433 1.52687 8.07436 0.878695C7.75578 0.556011 7.29204 0.430545 6.85826 0.550009C5.98789 0.789568 6.10945 0.789593 5.23639 0.553845C4.80205 0.436435 4.33891 0.563781 4.02187 0.888281C3.38559 1.53916 3.49045 1.47704 2.61945 1.71691C2.18567 1.83638 1.84711 2.18249 1.73191 2.62464C1.50057 3.51238 1.56063 3.40536 0.924353 4.05624C0.607307 4.38043 0.484048 4.85229 0.601655 5.29388C0.837188 6.17958 0.837208 6.05583 0.60556 6.9445C0.490355 7.38665 0.615533 7.85792 0.93411 8.18092C1.57346 8.82878 1.51258 8.72174 1.74843 9.60868C1.86572 10.0503 2.20591 10.3948 2.64025 10.5122C3.34008 10.7012 3.39219 10.671 3.85361 11.1387C4.26805 11.5587 4.91229 11.6325 5.40842 11.3169C5.60681 11.1903 5.83714 11.1228 6.07249 11.1222C6.30784 11.1217 6.53848 11.1881 6.73747 11.3138C7.23478 11.627 7.87866 11.5501 8.2911 11.1282ZM3.11212 6.0142C3.1082 4.35701 4.42501 3.01046 6.05313 3.00661C7.68126 3.00276 9.00443 4.34307 9.00835 6.00025C9.01227 7.65743 7.69545 9.00399 6.06733 9.00784C4.43921 9.01169 3.11604 7.67138 3.11212 6.0142V6.0142Z" fill="white"/>
</svg>
